<mxfile host="app.diagrams.net" agent="Mozilla/5.0 (Windows NT 10.0; Win64; x64) AppleWebKit/537.36 (KHTML, like Gecko) Chrome/134.0.0.0 Safari/537.36" version="26.0.16">
  <diagram name="Page-1" id="GDpr7dC5wLroo6JmGp8o">
    <mxGraphModel dx="1434" dy="746" grid="1" gridSize="10" guides="1" tooltips="1" connect="1" arrows="1" fold="1" page="1" pageScale="1" pageWidth="850" pageHeight="1100" math="0" shadow="0">
      <root>
        <mxCell id="0" />
        <mxCell id="1" parent="0" />
        <mxCell id="sYRDRcsBkvSeBfwncIXS-7" value="" style="ellipse;whiteSpace=wrap;html=1;fillColor=none;" vertex="1" parent="1">
          <mxGeometry x="330" y="190" width="190" height="100" as="geometry" />
        </mxCell>
        <mxCell id="sYRDRcsBkvSeBfwncIXS-1" value="NEPTUNKOD_orarend" style="ellipse;whiteSpace=wrap;html=1;" vertex="1" parent="1">
          <mxGeometry x="345" y="60" width="160" height="80" as="geometry" />
        </mxCell>
        <mxCell id="sYRDRcsBkvSeBfwncIXS-2" value="" style="endArrow=none;html=1;rounded=0;exitX=0.5;exitY=0;exitDx=0;exitDy=0;" edge="1" parent="1" source="sYRDRcsBkvSeBfwncIXS-7">
          <mxGeometry width="50" height="50" relative="1" as="geometry">
            <mxPoint x="425" y="200" as="sourcePoint" />
            <mxPoint x="425" y="140" as="targetPoint" />
            <Array as="points" />
          </mxGeometry>
        </mxCell>
        <mxCell id="sYRDRcsBkvSeBfwncIXS-6" value="Ora" style="ellipse;whiteSpace=wrap;html=1;" vertex="1" parent="1">
          <mxGeometry x="345" y="200" width="160" height="80" as="geometry" />
        </mxCell>
        <mxCell id="sYRDRcsBkvSeBfwncIXS-8" value="&lt;font&gt;&lt;u&gt;ID&lt;/u&gt;&lt;/font&gt;" style="rhombus;whiteSpace=wrap;html=1;" vertex="1" parent="1">
          <mxGeometry x="60" y="350" width="80" height="80" as="geometry" />
        </mxCell>
        <mxCell id="sYRDRcsBkvSeBfwncIXS-9" value="" style="endArrow=none;html=1;rounded=0;exitX=0.5;exitY=0;exitDx=0;exitDy=0;" edge="1" parent="1" source="sYRDRcsBkvSeBfwncIXS-8">
          <mxGeometry width="50" height="50" relative="1" as="geometry">
            <mxPoint x="280" y="290" as="sourcePoint" />
            <mxPoint x="330" y="240" as="targetPoint" />
          </mxGeometry>
        </mxCell>
        <mxCell id="sYRDRcsBkvSeBfwncIXS-10" value="" style="endArrow=none;html=1;rounded=0;exitX=0.5;exitY=0;exitDx=0;exitDy=0;" edge="1" parent="1" source="sYRDRcsBkvSeBfwncIXS-11">
          <mxGeometry width="50" height="50" relative="1" as="geometry">
            <mxPoint x="750" y="350" as="sourcePoint" />
            <mxPoint x="520" y="240" as="targetPoint" />
          </mxGeometry>
        </mxCell>
        <mxCell id="sYRDRcsBkvSeBfwncIXS-11" value="&lt;font&gt;Tipus&lt;/font&gt;" style="rhombus;whiteSpace=wrap;html=1;" vertex="1" parent="1">
          <mxGeometry x="700" y="350" width="80" height="80" as="geometry" />
        </mxCell>
        <mxCell id="sYRDRcsBkvSeBfwncIXS-12" value="" style="endArrow=none;html=1;rounded=0;exitX=0.5;exitY=0;exitDx=0;exitDy=0;" edge="1" parent="1" source="sYRDRcsBkvSeBfwncIXS-14">
          <mxGeometry width="50" height="50" relative="1" as="geometry">
            <mxPoint x="80" y="520" as="sourcePoint" />
            <mxPoint x="425" y="290" as="targetPoint" />
          </mxGeometry>
        </mxCell>
        <mxCell id="sYRDRcsBkvSeBfwncIXS-14" value="Kurzus" style="ellipse;whiteSpace=wrap;html=1;" vertex="1" parent="1">
          <mxGeometry y="520" width="160" height="80" as="geometry" />
        </mxCell>
        <mxCell id="sYRDRcsBkvSeBfwncIXS-15" value="" style="rounded=0;whiteSpace=wrap;html=1;rotation=90;" vertex="1" parent="1">
          <mxGeometry x="55" y="655" width="50" height="40" as="geometry" />
        </mxCell>
        <mxCell id="sYRDRcsBkvSeBfwncIXS-16" value="" style="endArrow=none;html=1;rounded=0;exitX=0;exitY=0.5;exitDx=0;exitDy=0;" edge="1" parent="1" source="sYRDRcsBkvSeBfwncIXS-15">
          <mxGeometry width="50" height="50" relative="1" as="geometry">
            <mxPoint x="30" y="650" as="sourcePoint" />
            <mxPoint x="80" y="600" as="targetPoint" />
          </mxGeometry>
        </mxCell>
        <mxCell id="sYRDRcsBkvSeBfwncIXS-17" value="" style="endArrow=none;html=1;rounded=0;entryX=0.5;entryY=1;entryDx=0;entryDy=0;exitX=0.5;exitY=0;exitDx=0;exitDy=0;" edge="1" parent="1" source="sYRDRcsBkvSeBfwncIXS-19" target="sYRDRcsBkvSeBfwncIXS-7">
          <mxGeometry width="50" height="50" relative="1" as="geometry">
            <mxPoint x="375" y="340" as="sourcePoint" />
            <mxPoint x="391.7179882264861" y="323.2820117735139" as="targetPoint" />
          </mxGeometry>
        </mxCell>
        <mxCell id="sYRDRcsBkvSeBfwncIXS-19" value="Idopont" style="ellipse;whiteSpace=wrap;html=1;" vertex="1" parent="1">
          <mxGeometry x="170" y="520" width="160" height="80" as="geometry" />
        </mxCell>
        <mxCell id="sYRDRcsBkvSeBfwncIXS-20" value="" style="endArrow=none;html=1;rounded=0;exitX=0.5;exitY=0;exitDx=0;exitDy=0;" edge="1" parent="1" source="sYRDRcsBkvSeBfwncIXS-21">
          <mxGeometry width="50" height="50" relative="1" as="geometry">
            <mxPoint x="425" y="380" as="sourcePoint" />
            <mxPoint x="425" y="290" as="targetPoint" />
          </mxGeometry>
        </mxCell>
        <mxCell id="sYRDRcsBkvSeBfwncIXS-21" value="Helyszin" style="ellipse;whiteSpace=wrap;html=1;" vertex="1" parent="1">
          <mxGeometry x="345" y="520" width="160" height="80" as="geometry" />
        </mxCell>
        <mxCell id="sYRDRcsBkvSeBfwncIXS-22" value="Oktato" style="ellipse;whiteSpace=wrap;html=1;" vertex="1" parent="1">
          <mxGeometry x="520" y="520" width="160" height="80" as="geometry" />
        </mxCell>
        <mxCell id="sYRDRcsBkvSeBfwncIXS-23" value="" style="endArrow=none;html=1;rounded=0;exitX=0.5;exitY=0;exitDx=0;exitDy=0;" edge="1" parent="1" source="sYRDRcsBkvSeBfwncIXS-22">
          <mxGeometry width="50" height="50" relative="1" as="geometry">
            <mxPoint x="375" y="340" as="sourcePoint" />
            <mxPoint x="425" y="290" as="targetPoint" />
          </mxGeometry>
        </mxCell>
        <mxCell id="sYRDRcsBkvSeBfwncIXS-24" value="Szak" style="ellipse;whiteSpace=wrap;html=1;" vertex="1" parent="1">
          <mxGeometry x="700" y="520" width="160" height="80" as="geometry" />
        </mxCell>
        <mxCell id="sYRDRcsBkvSeBfwncIXS-25" value="" style="endArrow=none;html=1;rounded=0;exitX=0.5;exitY=0;exitDx=0;exitDy=0;" edge="1" parent="1" source="sYRDRcsBkvSeBfwncIXS-24">
          <mxGeometry width="50" height="50" relative="1" as="geometry">
            <mxPoint x="600" y="520" as="sourcePoint" />
            <mxPoint x="425" y="290" as="targetPoint" />
          </mxGeometry>
        </mxCell>
        <mxCell id="sYRDRcsBkvSeBfwncIXS-26" value="" style="rounded=0;whiteSpace=wrap;html=1;rotation=90;" vertex="1" parent="1">
          <mxGeometry x="400" y="655" width="50" height="40" as="geometry" />
        </mxCell>
        <mxCell id="sYRDRcsBkvSeBfwncIXS-27" value="" style="endArrow=none;html=1;rounded=0;exitX=0;exitY=0.5;exitDx=0;exitDy=0;" edge="1" source="sYRDRcsBkvSeBfwncIXS-26" parent="1">
          <mxGeometry width="50" height="50" relative="1" as="geometry">
            <mxPoint x="375" y="650" as="sourcePoint" />
            <mxPoint x="425" y="600" as="targetPoint" />
          </mxGeometry>
        </mxCell>
        <mxCell id="sYRDRcsBkvSeBfwncIXS-28" value="" style="rounded=0;whiteSpace=wrap;html=1;rotation=90;" vertex="1" parent="1">
          <mxGeometry x="575" y="655" width="50" height="40" as="geometry" />
        </mxCell>
        <mxCell id="sYRDRcsBkvSeBfwncIXS-29" value="" style="endArrow=none;html=1;rounded=0;exitX=0;exitY=0.5;exitDx=0;exitDy=0;" edge="1" source="sYRDRcsBkvSeBfwncIXS-28" parent="1">
          <mxGeometry width="50" height="50" relative="1" as="geometry">
            <mxPoint x="550" y="650" as="sourcePoint" />
            <mxPoint x="600" y="600" as="targetPoint" />
          </mxGeometry>
        </mxCell>
        <mxCell id="sYRDRcsBkvSeBfwncIXS-30" value="" style="rounded=0;whiteSpace=wrap;html=1;rotation=90;" vertex="1" parent="1">
          <mxGeometry x="755" y="655" width="50" height="40" as="geometry" />
        </mxCell>
        <mxCell id="sYRDRcsBkvSeBfwncIXS-31" value="" style="endArrow=none;html=1;rounded=0;exitX=0;exitY=0.5;exitDx=0;exitDy=0;" edge="1" source="sYRDRcsBkvSeBfwncIXS-30" parent="1">
          <mxGeometry width="50" height="50" relative="1" as="geometry">
            <mxPoint x="730" y="650" as="sourcePoint" />
            <mxPoint x="780" y="600" as="targetPoint" />
          </mxGeometry>
        </mxCell>
        <mxCell id="sYRDRcsBkvSeBfwncIXS-32" value="" style="endArrow=none;html=1;rounded=0;" edge="1" parent="1">
          <mxGeometry width="50" height="50" relative="1" as="geometry">
            <mxPoint x="80" y="800" as="sourcePoint" />
            <mxPoint x="250" y="600" as="targetPoint" />
          </mxGeometry>
        </mxCell>
        <mxCell id="sYRDRcsBkvSeBfwncIXS-33" value="Nap" style="ellipse;whiteSpace=wrap;html=1;" vertex="1" parent="1">
          <mxGeometry y="800" width="160" height="80" as="geometry" />
        </mxCell>
        <mxCell id="sYRDRcsBkvSeBfwncIXS-34" value="" style="endArrow=none;html=1;rounded=0;entryX=0.5;entryY=1;entryDx=0;entryDy=0;exitX=0.5;exitY=0;exitDx=0;exitDy=0;" edge="1" parent="1" source="sYRDRcsBkvSeBfwncIXS-35" target="sYRDRcsBkvSeBfwncIXS-19">
          <mxGeometry width="50" height="50" relative="1" as="geometry">
            <mxPoint x="250" y="790" as="sourcePoint" />
            <mxPoint x="260" y="610" as="targetPoint" />
          </mxGeometry>
        </mxCell>
        <mxCell id="sYRDRcsBkvSeBfwncIXS-35" value="Tol" style="ellipse;whiteSpace=wrap;html=1;" vertex="1" parent="1">
          <mxGeometry x="170" y="800" width="160" height="80" as="geometry" />
        </mxCell>
        <mxCell id="sYRDRcsBkvSeBfwncIXS-36" value="Ig" style="ellipse;whiteSpace=wrap;html=1;" vertex="1" parent="1">
          <mxGeometry x="345" y="800" width="160" height="80" as="geometry" />
        </mxCell>
        <mxCell id="sYRDRcsBkvSeBfwncIXS-37" value="" style="endArrow=none;html=1;rounded=0;entryX=0.5;entryY=1;entryDx=0;entryDy=0;exitX=0.5;exitY=0;exitDx=0;exitDy=0;" edge="1" parent="1" source="sYRDRcsBkvSeBfwncIXS-36" target="sYRDRcsBkvSeBfwncIXS-19">
          <mxGeometry width="50" height="50" relative="1" as="geometry">
            <mxPoint x="260" y="810" as="sourcePoint" />
            <mxPoint x="260" y="610" as="targetPoint" />
          </mxGeometry>
        </mxCell>
        <mxCell id="sYRDRcsBkvSeBfwncIXS-38" value="" style="rounded=0;whiteSpace=wrap;html=1;rotation=90;" vertex="1" parent="1">
          <mxGeometry x="55" y="935" width="50" height="40" as="geometry" />
        </mxCell>
        <mxCell id="sYRDRcsBkvSeBfwncIXS-39" value="" style="endArrow=none;html=1;rounded=0;exitX=0;exitY=0.5;exitDx=0;exitDy=0;" edge="1" source="sYRDRcsBkvSeBfwncIXS-38" parent="1">
          <mxGeometry width="50" height="50" relative="1" as="geometry">
            <mxPoint x="30" y="930" as="sourcePoint" />
            <mxPoint x="80" y="880" as="targetPoint" />
          </mxGeometry>
        </mxCell>
        <mxCell id="sYRDRcsBkvSeBfwncIXS-42" value="" style="rounded=0;whiteSpace=wrap;html=1;rotation=90;" vertex="1" parent="1">
          <mxGeometry x="225" y="935" width="50" height="40" as="geometry" />
        </mxCell>
        <mxCell id="sYRDRcsBkvSeBfwncIXS-43" value="" style="endArrow=none;html=1;rounded=0;exitX=0;exitY=0.5;exitDx=0;exitDy=0;" edge="1" source="sYRDRcsBkvSeBfwncIXS-42" parent="1">
          <mxGeometry width="50" height="50" relative="1" as="geometry">
            <mxPoint x="200" y="930" as="sourcePoint" />
            <mxPoint x="250" y="880" as="targetPoint" />
          </mxGeometry>
        </mxCell>
        <mxCell id="sYRDRcsBkvSeBfwncIXS-44" value="" style="rounded=0;whiteSpace=wrap;html=1;rotation=90;" vertex="1" parent="1">
          <mxGeometry x="400" y="935" width="50" height="40" as="geometry" />
        </mxCell>
        <mxCell id="sYRDRcsBkvSeBfwncIXS-45" value="" style="endArrow=none;html=1;rounded=0;exitX=0;exitY=0.5;exitDx=0;exitDy=0;" edge="1" source="sYRDRcsBkvSeBfwncIXS-44" parent="1">
          <mxGeometry width="50" height="50" relative="1" as="geometry">
            <mxPoint x="375" y="930" as="sourcePoint" />
            <mxPoint x="425" y="880" as="targetPoint" />
          </mxGeometry>
        </mxCell>
      </root>
    </mxGraphModel>
  </diagram>
</mxfile>
